<svg width="16" height="20" viewBox="0 0 16 20" fill="none" xmlns="http://www.w3.org/2000/svg">
<path fill-rule="evenodd" clip-rule="evenodd" d="M3.35196 19.609H0V7.00293H3.35196V19.609V19.609Z" fill="#56776C"/>
<path fill-rule="evenodd" clip-rule="evenodd" d="M1.66601 4.20202H1.64697C0.646673 4.20202 0 3.26781 0 2.10028C0 0.908065 0.666369 0 1.68565 0C2.70493 0 3.33262 0.908065 3.35196 2.10028C3.35196 3.26781 2.70493 4.20202 1.66601 4.20202V4.20202Z" fill="#56776C"/>
<path fill-rule="evenodd" clip-rule="evenodd" d="M15.6422 19.6087H12.3484V13.0193C12.3484 11.3642 11.8717 10.2348 10.6793 10.2348C9.7693 10.2348 9.22727 10.9962 8.98921 11.7316C8.90211 11.9951 8.88073 12.3623 8.88073 12.7304V19.609H5.58643C5.58643 19.609 5.62984 8.44819 5.58643 7.29247H8.88073V9.037C9.31791 8.19838 10.1009 7.00293 11.8498 7.00293C14.0173 7.00293 15.6423 8.76365 15.6423 12.5467L15.6422 19.6087V19.6087Z" fill="#56776C"/>
</svg>
