<svg width="69" height="68" viewBox="0 0 69 68" fill="none" xmlns="http://www.w3.org/2000/svg">
<mask id="mask0_782_47" style="mask-type:alpha" maskUnits="userSpaceOnUse" x="0" y="0" width="69" height="68">
<path fill-rule="evenodd" clip-rule="evenodd" d="M34.5001 0.708313C26.2227 0.708313 19.3871 6.88139 18.3458 14.875L16.4686 14.875C13.6475 14.8749 11.3081 14.8748 9.47205 15.1314C7.54186 15.4011 5.80748 15.9965 4.48848 17.4702C3.16948 18.9439 2.76916 20.7334 2.71426 22.6816C2.66205 24.5347 2.92047 26.8599 3.2321 29.6637L4.10445 37.5149C4.7562 43.381 5.26808 47.988 6.13749 51.5689C7.02863 55.2392 8.35404 58.1037 10.8146 60.306C13.2776 62.5105 16.2851 63.5102 20.0517 63.9899C23.7292 64.4584 28.3989 64.4583 34.3484 64.4583H34.6517C40.6012 64.4583 45.2711 64.4584 48.9486 63.9899C52.7151 63.5102 55.7227 62.5105 58.1856 60.306C60.6462 58.1037 61.9716 55.2392 62.8628 51.5689C63.7322 47.9881 64.244 43.3812 64.8958 37.5153L65.7682 29.6636C66.0798 26.8599 66.3382 24.5347 66.286 22.6816C66.2311 20.7334 65.8308 18.9439 64.5118 17.4702C63.1928 15.9965 61.4584 15.4011 59.5282 15.1314C57.6922 14.8748 55.3527 14.8749 52.5316 14.875L50.6545 14.875C49.6132 6.88139 42.7776 0.708313 34.5001 0.708313ZM34.5001 4.95831C40.4255 4.95831 45.3512 9.23804 46.3549 14.875H22.6454C23.649 9.23804 28.5748 4.95831 34.5001 4.95831ZM17.5002 26.2083C16.3266 26.2083 15.3752 27.1597 15.3752 28.3333C15.3752 29.5069 16.3266 30.4583 17.5002 30.4583H51.5002C52.6738 30.4583 53.6252 29.5069 53.6252 28.3333C53.6252 27.1597 52.6738 26.2083 51.5002 26.2083H17.5002Z" fill="#333333"/>
</mask>
<g mask="url(#mask0_782_47)">
<rect x="-5" y="-21" width="94" height="111" fill="#56776C"/>
</g>
</svg>
