<svg width="86" height="93" viewBox="0 0 86 93" fill="none" xmlns="http://www.w3.org/2000/svg">
    <g clip-path="url(#clip0_351_6009)">
        <g clip-path="url(#clip1_351_6009)">
            <path d="M62.6387 92.3106H66.2177L64.4234 88.4644L62.6387 92.3106Z" fill="white" />
            <path
                d="M5.37305 92.3105H8.95209L21.474 65.3866L34.0054 92.3105H37.5844L21.474 57.6941L5.37305 92.3105Z"
                fill="white" />
            <path
                d="M48.3223 92.3105H51.9013L64.4232 65.3866L76.9546 92.3105H80.5336L64.4232 57.6941L48.3223 92.3105Z"
                fill="white" />
            <path
                d="M55.4805 92.3105H59.0595L64.4233 80.7716L69.7966 92.3105H73.3757L64.4233 73.0791L55.4805 92.3105Z"
                fill="white" />
            <path
                d="M12.5312 92.3105H16.1103L21.4741 80.7716L26.8474 92.3105H30.4265L21.4741 73.0791L12.5312 92.3105Z"
                fill="white" />
            <path
                d="M84.1122 0L82.3179 3.84627L80.5332 0H76.9541L80.5332 7.69255L78.7389 11.5388L73.3751 0H69.7961L76.9541 15.3851L75.1694 19.2314L66.217 0H62.638L53.6856 19.2314L51.9009 15.3851L59.0589 0H55.4799L50.1066 11.5388L48.3218 7.69255L51.9009 0H48.3218L46.5275 3.84627L44.7428 0H41.1637L39.3694 3.84627L37.5847 0H34.0057L37.5847 7.69255L35.7904 11.5388L30.4266 0H26.8476L34.0057 15.3851L32.2209 19.2314L23.2685 0H19.6895L10.7371 19.2314L8.95237 15.3851L16.1105 0H12.5314L7.15808 11.5388L5.37333 7.69255L8.95237 0H5.37333L3.57904 3.84627L1.79429 0H0V3.84627L19.6895 46.1553L17.9047 50.0015L0 11.5388V19.2314L16.1105 53.8478L14.3162 57.6941L0 26.9239V34.6165L12.5314 61.5404L10.7467 65.3866L0 42.309V50.0015L8.95237 69.2329L7.15808 73.0792L0 57.6941V65.3866L5.37333 76.9255L3.57904 80.7717L0 73.0792V80.7717L1.79429 84.618L0 88.4643V92.3106H1.79429L21.4742 50.0015L41.1637 92.3106H44.7428L64.4227 50.0015L84.1122 92.3106H85.897V88.4643L84.1122 84.618L85.897 80.7717V73.0792L82.3179 80.7717L80.5332 76.9255L85.897 65.3866V57.6941L78.7389 73.0792L76.9541 69.2329L85.897 50.0015V42.309L75.1599 65.3866L73.3751 61.5404L85.897 34.6165V26.9239L71.5808 57.6941L69.7961 53.8478L85.897 19.2314V11.5388L68.0018 50.0015L66.217 46.1553L85.897 3.84627V0H84.1122ZM12.5314 23.0776L21.4742 3.84627L30.4266 23.0776L28.6323 26.9239L21.4742 11.5388L14.3162 26.9239L12.5314 23.0776ZM17.9047 34.6165L16.1105 30.7702L21.4742 19.2314L26.8476 30.7702L25.0628 34.6165L21.4838 26.9239L17.9047 34.6165ZM19.699 38.4627L21.4933 34.6165L23.2876 38.4627L21.4742 42.309L19.699 38.4627ZM42.9485 88.4643L41.1637 84.618L42.9485 80.7717L44.7428 84.618L42.9485 88.4643ZM46.5275 80.7717L42.9485 73.0792L39.3694 80.7717L37.5847 76.9255L42.9485 65.3866L48.3218 76.9255L46.5275 80.7717ZM50.1066 73.0792L42.9485 57.6941L35.7904 73.0792L34.0057 69.2329L42.9485 50.0015L51.9009 69.2329L50.1066 73.0792ZM53.6856 65.3866L42.9485 42.309L32.2114 65.3866L30.4266 61.5404L42.9485 34.6165L55.4799 61.5404L53.6856 65.3866ZM57.2646 57.6941L42.9485 26.9239L28.6323 57.6941L26.8476 53.8478L42.9485 19.2314L59.0589 53.8478L57.2646 57.6941ZM60.8437 50.0015L42.9485 11.5388L25.0533 50.0015L23.2685 46.1553L42.9485 3.84627L62.638 46.1553L60.8437 50.0015ZM64.4227 42.309L62.638 38.4627L64.4323 34.6165L66.2266 38.4627L64.4227 42.309ZM68.0018 34.6165L64.4227 26.9239L60.8437 34.6165L59.0589 30.7702L64.4227 19.2314L69.7961 30.7702L68.0018 34.6165ZM71.5808 26.9239L64.4227 11.5388L57.2646 26.9239L55.4799 23.0776L64.4227 3.84627L73.3751 23.0776L71.5808 26.9239Z"
                fill="white" />
            <path d="M19.6895 92.3106H23.2685L21.4742 88.4644L19.6895 92.3106Z" fill="white" />
        </g>
    </g>
    <defs>
        <clipPath id="clip0_351_6009">
            <rect width="85.897" height="92.3105" fill="white" />
        </clipPath>
        <clipPath id="clip1_351_6009">
            <rect width="85.897" height="92.3105" fill="white" />
        </clipPath>
    </defs>
</svg>
