<svg width="522" height="92" viewBox="0 0 522 92" fill="none" xmlns="http://www.w3.org/2000/svg">
<g clip-path="url(#clip0_558_7106)">
<g clip-path="url(#clip1_558_7106)">
<g clip-path="url(#clip2_558_7106)">
<g clip-path="url(#clip3_558_7106)">
<g clip-path="url(#clip4_558_7106)">
<g clip-path="url(#clip5_558_7106)">
<g clip-path="url(#clip6_558_7106)">
<path d="M51.7276 45.9261V71.4545C48.9316 74.0159 45.8147 75.9801 42.377 77.347C38.9393 78.714 35.3583 79.3974 31.6341 79.3974C28.7808 79.3974 26.0306 78.9972 23.3835 78.1968C20.7365 77.3963 18.2671 76.2695 15.9752 74.8164C13.6834 73.3509 11.5864 71.6084 9.68419 69.5888C7.78199 67.5569 6.16052 65.2971 4.81981 62.8095C3.4791 60.3343 2.43632 57.6682 1.69148 54.8112C0.946639 51.9541 0.574219 48.9925 0.574219 45.9261C0.574219 42.8597 0.946639 39.9165 1.69148 37.0965C2.43632 34.2641 3.4791 31.6103 4.81981 29.135C6.16052 26.6474 7.78199 24.3939 9.68419 22.3742C11.5864 20.3423 13.6834 18.606 15.9752 17.1651C18.2671 15.712 20.7365 14.5914 23.3835 13.8032C26.0306 13.0028 28.7808 12.6025 31.6341 12.6025C35.3583 12.6025 38.9393 13.286 42.377 14.6529C45.8147 16.0199 48.9316 17.9841 51.7276 20.5455L45.4366 31.8135C43.6146 29.8308 41.5175 28.273 39.1455 27.14C36.762 26.0194 34.2582 25.4591 31.6341 25.4591C28.9985 25.4591 26.5291 26.0009 24.2258 27.0846C21.9225 28.1683 19.9 29.6338 18.1582 31.481C16.4279 33.3282 15.0585 35.4894 14.0501 37.9647C13.0417 40.4522 12.5375 43.106 12.5375 45.9261C12.5375 48.7831 13.0417 51.4616 14.0501 53.9614C15.0585 56.449 16.4279 58.6287 18.1582 60.5005C19.9 62.3601 21.9225 63.8317 24.2258 64.9154C26.5291 65.999 28.9985 66.5409 31.6341 66.5409C33.1467 66.5409 34.6134 66.3439 36.0344 65.9498C37.4668 65.5557 38.8247 65.0139 40.1081 64.3243V45.9261H51.7276ZM70.8242 51.3938V77.9936H59.3594V29.6892H62.1439L65.9082 35.4155C67.7531 33.6176 69.8559 32.226 72.2164 31.2408C74.5656 30.268 76.9949 29.7815 79.5044 29.7815H89.6285V42.047H79.5044C78.3012 42.047 77.1725 42.2871 76.1183 42.7674C75.0526 43.2477 74.1244 43.9126 73.3337 44.7624C72.5545 45.5998 71.9414 46.5911 71.4945 47.7364C71.0476 48.8816 70.8242 50.1008 70.8242 51.3938ZM133.477 38.3526L111.991 66.1715C112.438 66.3315 112.885 66.4301 113.332 66.467C113.779 66.5163 114.225 66.5409 114.672 66.5409C115.795 66.5409 116.873 66.3746 117.904 66.0422C118.935 65.7097 119.909 65.2355 120.826 64.6198C121.731 64.0041 122.539 63.2529 123.25 62.3662C123.96 61.4796 124.544 60.4944 125.003 59.4107L133.391 68.4805C132.325 70.106 131.099 71.5653 129.712 72.8583C128.326 74.1514 126.83 75.2474 125.226 76.1464C123.622 77.0453 121.932 77.7288 120.156 78.1968C118.379 78.6647 116.552 78.8987 114.672 78.8987C111.51 78.8987 108.536 78.2645 105.751 76.9961C102.967 75.74 100.532 73.9851 98.4463 71.7315C96.3607 69.4779 94.7164 66.7933 93.5132 63.6777C92.3214 60.5621 91.7255 57.1386 91.7255 53.4073C91.7255 49.5897 92.3214 46.1047 93.5132 42.9521C94.7164 39.7995 96.3607 37.1088 98.4463 34.8798C100.532 32.6509 102.967 30.9206 105.751 29.6892C108.536 28.4577 111.51 27.842 114.672 27.842C116.552 27.842 118.385 28.0821 120.173 28.5624C121.96 29.0427 123.656 29.7384 125.261 30.6497C126.876 31.5487 128.383 32.6509 129.781 33.9562C131.179 35.2616 132.411 36.727 133.477 38.3526ZM104.514 59.8171L117.869 40.7909C117.331 40.5815 116.804 40.4461 116.288 40.3845C115.772 40.3229 115.234 40.2921 114.672 40.2921C113.102 40.2921 111.624 40.6 110.238 41.2157C108.863 41.8315 107.659 42.712 106.628 43.8572C105.608 45.0025 104.806 46.3756 104.222 47.9765C103.637 49.5897 103.345 51.4 103.345 53.4073C103.345 53.8629 103.362 54.374 103.397 54.9405C103.442 55.5192 103.517 56.098 103.62 56.6768C103.712 57.2679 103.826 57.8344 103.964 58.3763C104.113 58.9181 104.296 59.3984 104.514 59.8171ZM178.236 38.3526L156.75 66.1715C157.209 66.3315 157.661 66.4301 158.108 66.467C158.555 66.5163 159.002 66.5409 159.449 66.5409C160.56 66.5409 161.637 66.3746 162.68 66.0422C163.712 65.7097 164.68 65.2355 165.585 64.6198C166.502 64.0041 167.315 63.2529 168.026 62.3662C168.736 61.4796 169.315 60.4944 169.762 59.4107L178.167 68.4805C177.102 70.106 175.875 71.5653 174.489 72.8583C173.102 74.1514 171.607 75.2474 170.003 76.1464C168.387 77.0453 166.691 77.7288 164.915 78.1968C163.139 78.6647 161.317 78.8987 159.449 78.8987C156.286 78.8987 153.312 78.2645 150.528 76.9961C147.743 75.74 145.308 73.9851 143.223 71.7315C141.137 69.4779 139.493 66.7933 138.29 63.6777C137.086 60.5621 136.485 57.1386 136.485 53.4073C136.485 49.5897 137.086 46.1047 138.29 42.9521C139.493 39.7995 141.137 37.1088 143.223 34.8798C145.308 32.6509 147.743 30.9206 150.528 29.6892C153.312 28.4577 156.286 27.842 159.449 27.842C161.317 27.842 163.15 28.0821 164.949 28.5624C166.737 29.0427 168.433 29.7384 170.037 30.6497C171.653 31.5487 173.16 32.6509 174.558 33.9562C175.956 35.2616 177.182 36.727 178.236 38.3526ZM149.29 59.8171L162.629 40.7909C162.102 40.5815 161.58 40.4461 161.065 40.3845C160.549 40.3229 160.01 40.2921 159.449 40.2921C157.879 40.2921 156.401 40.6 155.014 41.2157C153.628 41.8315 152.424 42.712 151.404 43.8572C150.385 45.0025 149.583 46.3756 148.998 47.9765C148.414 49.5897 148.121 51.4 148.121 53.4073C148.121 53.8629 148.139 54.374 148.173 54.9405C148.219 55.5192 148.288 56.098 148.379 56.6768C148.482 57.2679 148.603 57.8344 148.74 58.3763C148.878 58.9181 149.061 59.3984 149.29 59.8171ZM195.442 50.3963V77.9936H183.994V29.6892H186.762L190.543 34.3811C192.388 32.5831 194.479 31.1916 196.817 30.2064C199.143 29.2335 201.584 28.7471 204.139 28.7471C206.878 28.7471 209.462 29.3136 211.891 30.4465C214.332 31.5672 216.458 33.1127 218.268 35.083C220.09 37.0534 221.528 39.3562 222.583 41.9916C223.625 44.6146 224.147 47.4162 224.147 50.3963V77.9936H212.699V50.3963C212.699 49.1279 212.476 47.9334 212.029 46.8128C211.57 45.6798 210.952 44.6946 210.172 43.8572C209.393 43.0075 208.482 42.3425 207.439 41.8623C206.408 41.382 205.308 41.1418 204.139 41.1418C202.936 41.1418 201.802 41.382 200.736 41.8623C199.67 42.3425 198.748 43.0075 197.969 43.8572C197.178 44.6946 196.559 45.6798 196.112 46.8128C195.665 47.9334 195.442 49.1279 195.442 50.3963ZM281.712 45.6675C281.712 48.6353 281.356 51.4985 280.646 54.257C279.935 57.0032 278.921 59.5708 277.603 61.9598C276.286 64.3489 274.721 66.5286 272.911 68.4989C271.089 70.4693 269.061 72.1626 266.826 73.5787C264.58 74.9826 262.18 76.0725 259.624 76.8483C257.069 77.6118 254.405 77.9936 251.631 77.9936H233.497V13.323H251.631C254.405 13.323 257.069 13.7047 259.624 14.4682C262.18 15.244 264.58 16.3339 266.826 17.7378C269.061 19.154 271.089 20.8472 272.911 22.8176C274.721 24.7879 276.286 26.9676 277.603 29.3567C278.921 31.7457 279.935 34.3133 280.646 37.0595C281.356 39.818 281.712 42.6873 281.712 45.6675ZM269.679 45.6675C269.679 42.9829 269.21 40.4707 268.27 38.1309C267.33 35.7788 266.041 33.7284 264.403 31.9797C262.775 30.2187 260.862 28.8271 258.662 27.805C256.461 26.7829 254.118 26.2719 251.631 26.2719H245.633V65.0447H251.631C254.118 65.0447 256.461 64.5459 258.662 63.5484C260.862 62.5386 262.775 61.1532 264.403 59.3922C266.041 57.6312 267.33 55.5685 268.27 53.2041C269.21 50.852 269.679 48.3398 269.679 45.6675ZM327.829 38.3526L306.343 66.1715C306.79 66.3315 307.237 66.4301 307.684 66.467C308.13 66.5163 308.583 66.5409 309.041 66.5409C310.153 66.5409 311.23 66.3746 312.273 66.0422C313.304 65.7097 314.273 65.2355 315.178 64.6198C316.095 64.0041 316.908 63.2529 317.619 62.3662C318.329 61.4796 318.908 60.4944 319.355 59.4107L327.743 68.4805C326.688 70.106 325.468 71.5653 324.082 72.8583C322.695 74.1514 321.2 75.2474 319.595 76.1464C317.98 77.0453 316.284 77.7288 314.507 78.1968C312.731 78.6647 310.909 78.8987 309.041 78.8987C305.879 78.8987 302.905 78.2645 300.121 76.9961C297.336 75.74 294.901 73.9851 292.815 71.7315C290.73 69.4779 289.085 66.7933 287.882 63.6777C286.679 60.5621 286.077 57.1386 286.077 53.4073C286.077 49.5897 286.679 46.1047 287.882 42.9521C289.085 39.7995 290.73 37.1088 292.815 34.8798C294.901 32.6509 297.336 30.9206 300.121 29.6892C302.905 28.4577 305.879 27.842 309.041 27.842C310.909 27.842 312.737 28.0821 314.525 28.5624C316.324 29.0427 318.025 29.7384 319.63 30.6497C321.234 31.5487 322.735 32.6509 324.133 33.9562C325.543 35.2616 326.774 36.727 327.829 38.3526ZM298.883 59.8171L312.221 40.7909C311.694 40.5815 311.173 40.4461 310.657 40.3845C310.13 40.3229 309.592 40.2921 309.041 40.2921C307.472 40.2921 305.993 40.6 304.607 41.2157C303.22 41.8315 302.017 42.712 300.997 43.8572C299.977 45.0025 299.175 46.3756 298.591 47.9765C297.995 49.5897 297.697 51.4 297.697 53.4073C297.697 53.8629 297.72 54.374 297.766 54.9405C297.812 55.5192 297.88 56.098 297.972 56.6768C298.075 57.2679 298.195 57.8344 298.333 58.3763C298.47 58.9181 298.654 59.3984 298.883 59.8171ZM372.519 39.2946L364.131 48.3644C363.707 47.096 363.134 45.963 362.412 44.9656C361.679 43.9558 360.859 43.106 359.954 42.4164C359.049 41.7268 358.063 41.1973 356.998 40.8278C355.932 40.4707 354.838 40.2921 353.715 40.2921C352.156 40.2921 350.684 40.6369 349.297 41.3266C347.911 42.0162 346.707 42.989 345.688 44.2451C344.668 45.4889 343.86 46.9667 343.264 48.6784C342.68 50.3902 342.387 52.2866 342.387 54.3678C342.387 56.0426 342.68 57.6189 343.264 59.0967C343.86 60.5744 344.668 61.8675 345.688 62.9758C346.707 64.0841 347.911 64.9585 349.297 65.5988C350.684 66.2269 352.156 66.5409 353.715 66.5409C354.838 66.5409 355.915 66.3746 356.946 66.0422C357.989 65.7097 358.963 65.2355 359.868 64.6198C360.774 64.0041 361.587 63.2529 362.309 62.3662C363.019 61.4796 363.598 60.4944 364.045 59.4107L372.433 68.4805C371.367 70.106 370.147 71.5653 368.772 72.8583C367.385 74.1514 365.884 75.2474 364.269 76.1464C362.664 77.0453 360.974 77.7288 359.198 78.1968C357.422 78.6647 355.594 78.8987 353.715 78.8987C350.563 78.8987 347.596 78.2583 344.811 76.9776C342.026 75.6969 339.591 73.9482 337.506 71.7315C335.42 69.5026 333.776 66.898 332.573 63.9179C331.37 60.95 330.768 57.7667 330.768 54.3678C330.768 50.6611 331.37 47.2007 332.573 43.9865C333.776 40.7724 335.42 37.9708 337.506 35.5818C339.591 33.1927 342.026 31.3024 344.811 29.9108C347.596 28.5316 350.563 27.842 353.715 27.842C355.594 27.842 357.433 28.1006 359.232 28.6178C361.043 29.1227 362.767 29.8677 364.406 30.8529C366.045 31.8258 367.552 33.0203 368.927 34.4365C370.313 35.8404 371.511 37.4597 372.519 39.2946ZM420.854 53.4073C420.854 57.0155 420.252 60.3774 419.049 63.493C417.846 66.6086 416.213 69.2994 414.15 71.5653C412.076 73.8312 409.647 75.623 406.862 76.9407C404.077 78.246 401.092 78.8987 397.907 78.8987C394.744 78.8987 391.77 78.246 388.986 76.9407C386.201 75.623 383.766 73.8312 381.681 71.5653C379.595 69.2994 377.951 66.6086 376.748 63.493C375.556 60.3774 374.96 57.0155 374.96 53.4073C374.96 49.7498 375.556 46.3571 376.748 43.2292C377.951 40.1013 379.595 37.3982 381.681 35.12C383.766 32.8541 386.201 31.0746 388.986 29.7815C391.77 28.4885 394.744 27.842 397.907 27.842C401.092 27.842 404.077 28.4516 406.862 29.6707C409.647 30.8899 412.076 32.6201 414.15 34.8613C416.213 37.1026 417.846 39.7934 419.049 42.9336C420.252 46.0739 420.854 49.5651 420.854 53.4073ZM409.32 53.4073C409.32 51.4246 409.022 49.6328 408.426 48.0319C407.819 46.4187 407 45.0333 405.968 43.8757C404.925 42.7181 403.716 41.8315 402.341 41.2157C400.955 40.6 399.477 40.2921 397.907 40.2921C396.337 40.2921 394.859 40.6 393.472 41.2157C392.097 41.8315 390.894 42.7181 389.862 43.8757C388.843 45.0333 388.04 46.4187 387.456 48.0319C386.872 49.6328 386.579 51.4246 386.579 53.4073C386.579 55.2791 386.872 57.0093 387.456 58.5979C388.04 60.1988 388.843 61.5842 389.862 62.7541C390.894 63.924 392.097 64.8476 393.472 65.5249C394.859 66.2022 396.337 66.5409 397.907 66.5409C399.477 66.5409 400.955 66.2269 402.341 65.5988C403.716 64.9585 404.925 64.0718 405.968 62.9388C407 61.7936 407.819 60.4082 408.426 58.7826C409.022 57.1571 409.32 55.3653 409.32 53.4073Z" fill="#5B8A72"/>
</g>
</g>
</g>
</g>
<g clip-path="url(#clip7_558_7106)">
<g clip-path="url(#clip8_558_7106)">
<path d="M498.201 92.1554H501.78L499.986 88.3091L498.201 92.1554Z" fill="#5B8A72"/>
<path d="M440.936 92.1553H444.515L457.036 65.2314L469.568 92.1553H473.147L457.036 57.5388L440.936 92.1553Z" fill="#5B8A72"/>
<path d="M483.885 92.1553H487.464L499.986 65.2314L512.517 92.1553H516.096L499.986 57.5388L483.885 92.1553Z" fill="#5B8A72"/>
<path d="M491.043 92.1552H494.622L499.986 80.6164L505.359 92.1552H508.938L499.986 72.9238L491.043 92.1552Z" fill="#5B8A72"/>
<path d="M448.094 92.1552H451.673L457.037 80.6164L462.41 92.1552H465.989L457.037 72.9238L448.094 92.1552Z" fill="#5B8A72"/>
<path d="M519.675 -0.155273L517.88 3.691L516.096 -0.155273H512.517L516.096 7.53727L514.301 11.3835L508.938 -0.155273H505.359L512.517 15.2298L510.732 19.0761L501.78 -0.155273H498.2L489.248 19.0761L487.463 15.2298L494.621 -0.155273H491.042L485.669 11.3835L483.884 7.53727L487.463 -0.155273H483.884L482.09 3.691L480.305 -0.155273H476.726L474.932 3.691L473.147 -0.155273H469.568L473.147 7.53727L471.353 11.3835L465.989 -0.155273H462.41L469.568 15.2298L467.783 19.0761L458.831 -0.155273H455.252L446.3 19.0761L444.515 15.2298L451.673 -0.155273H448.094L442.721 11.3835L440.936 7.53727L444.515 -0.155273H440.936L439.142 3.691L437.357 -0.155273H435.562V3.691L455.252 46L453.467 49.8463L435.562 11.3835V19.0761L451.673 53.6925L449.879 57.5388L435.562 26.7686V34.4612L448.094 61.3851L446.309 65.2314L435.562 42.1537V49.8463L444.515 69.0776L442.721 72.9239L435.562 57.5388V65.2314L440.936 76.7702L439.142 80.6165L435.562 72.9239V80.6165L437.357 84.4627L435.562 88.309V92.1553H437.357L457.037 49.8463L476.726 92.1553H480.305L499.985 49.8463L519.675 92.1553H521.459V88.309L519.675 84.4627L521.459 80.6165V72.9239L517.88 80.6165L516.096 76.7702L521.459 65.2314V57.5388L514.301 72.9239L512.517 69.0776L521.459 49.8463V42.1537L510.722 65.2314L508.938 61.3851L521.459 34.4612V26.7686L507.143 57.5388L505.359 53.6925L521.459 19.0761V11.3835L503.564 49.8463L501.78 46L521.459 3.691V-0.155273H519.675ZM448.094 22.9224L457.037 3.691L465.989 22.9224L464.195 26.7686L457.037 11.3835L449.879 26.7686L448.094 22.9224ZM453.467 34.4612L451.673 30.6149L457.037 19.0761L462.41 30.6149L460.625 34.4612L457.046 26.7686L453.467 34.4612ZM455.262 38.3075L457.056 34.4612L458.85 38.3075L457.037 42.1537L455.262 38.3075ZM478.511 88.309L476.726 84.4627L478.511 80.6165L480.305 84.4627L478.511 88.309ZM482.09 80.6165L478.511 72.9239L474.932 80.6165L473.147 76.7702L478.511 65.2314L483.884 76.7702L482.09 80.6165ZM485.669 72.9239L478.511 57.5388L471.353 72.9239L469.568 69.0776L478.511 49.8463L487.463 69.0776L485.669 72.9239ZM489.248 65.2314L478.511 42.1537L467.774 65.2314L465.989 61.3851L478.511 34.4612L491.042 61.3851L489.248 65.2314ZM492.827 57.5388L478.511 26.7686L464.195 57.5388L462.41 53.6925L478.511 19.0761L494.621 53.6925L492.827 57.5388ZM496.406 49.8463L478.511 11.3835L460.616 49.8463L458.831 46L478.511 3.691L498.2 46L496.406 49.8463ZM499.985 42.1537L498.2 38.3075L499.995 34.4612L501.789 38.3075L499.985 42.1537ZM503.564 34.4612L499.985 26.7686L496.406 34.4612L494.621 30.6149L499.985 19.0761L505.359 30.6149L503.564 34.4612ZM507.143 26.7686L499.985 11.3835L492.827 26.7686L491.042 22.9224L499.985 3.691L508.938 22.9224L507.143 26.7686Z" fill="#5B8A72"/>
<path d="M455.252 92.1554H458.831L457.037 88.3091L455.252 92.1554Z" fill="#5B8A72"/>
</g>
</g>
</g>
</g>
</g>
<defs>
<clipPath id="clip0_558_7106">
<rect width="522" height="92" fill="white"/>
</clipPath>
<clipPath id="clip1_558_7106">
<rect width="520.918" height="92.3105" fill="white" transform="translate(0.541016 -0.155273)"/>
</clipPath>
<clipPath id="clip2_558_7106">
<rect width="520.918" height="92.3105" fill="white" transform="translate(0.541016 -0.155273)"/>
</clipPath>
<clipPath id="clip3_558_7106">
<rect width="420.348" height="66.7949" fill="white" transform="translate(0.541016 12.6025)"/>
</clipPath>
<clipPath id="clip4_558_7106">
<rect width="420.348" height="66.7949" fill="white" transform="translate(0.541016 12.6025)"/>
</clipPath>
<clipPath id="clip5_558_7106">
<rect width="420.348" height="66.7949" fill="white" transform="translate(0.541016 12.6025)"/>
</clipPath>
<clipPath id="clip6_558_7106">
<rect width="420.348" height="66.7949" fill="white" transform="translate(0.541016 12.6025)"/>
</clipPath>
<clipPath id="clip7_558_7106">
<rect width="85.897" height="92.3105" fill="white" transform="translate(435.562 -0.155273)"/>
</clipPath>
<clipPath id="clip8_558_7106">
<rect width="85.897" height="92.3105" fill="white" transform="translate(435.562 -0.155273)"/>
</clipPath>
</defs>
</svg>
